<?xml version="1.0" encoding="utf-8"?>
<!-- Generator: Adobe Illustrator 21.0.0, SVG Export Plug-In . SVG Version: 6.00 Build 0)  -->
<svg version="1.1" id="Layer_1" xmlns="http://www.w3.org/2000/svg" xmlns:xlink="http://www.w3.org/1999/xlink" x="0px" y="0px"
	 width="511px" height="511px" viewBox="0 0 511 511" style="enable-background:new 0 0 511 511; fill: #d2c296;" xml:space="preserve">
<style type="text/css">
	.st0{stroke:#000000;stroke-width:2;stroke-miterlimit:10;}
</style>
<path class="st0" d="M486.5,132.8c-24.9,14.9-53.1,23-82.1,23.1c-32.5,0.2-64.3-8.5-95-18.4C258.7,121.2,208.3,99.9,154.3,99
	c-24.1-0.3-48.2,4.3-70.4,13.6c-6.2,2.6-12.2,5.6-18.1,8.9V40c70.6-44.3,137.8-21.3,208.9,2.9c32.7,11.2,96.2,24.4,130.2,28.8
	c4.1,0.5,7.9-2.4,8.4-6.5c0.5-4.1-2.4-7.9-6.5-8.4c-32.5-4.2-95.3-17.2-127.3-28.1C209.4,4.8,137-19.9,61.9,24.8
	c-3.2-4-8.2-6.6-13.7-6.6H25.6C15.9,18.3,8,26.2,8,35.9v455.3c0,10.9,8.9,19.8,19.8,19.8h18.1c10.9,0,19.8-8.9,19.8-19.8V336.8
	c70.6-44.3,138-21.3,209.4,3c41.9,14.3,84.6,28.9,128.3,28.8c28.8,0,58.1-6.4,87.7-23.3c8.4-4.8,13.7-13.9,13.7-23.6V68.8
	c0-9.2-4.6-17.6-12.2-22.6c-7.7-5.1-17.3-5.9-25.8-2.3c-19.3,8.3-39.3,12.5-60.9,12.9c-4.1,0.1-7.4,3.5-7.4,7.6
	c0.1,4.1,3.5,7.4,7.6,7.4c23.6-0.4,45.4-5,66.6-14.1c3.9-1.7,8.1-1.3,11.6,1c3.5,2.3,5.5,6,5.5,10.1v61.9
	C488.7,131.5,487.6,132.1,486.5,132.8z M50.8,491.2c0,2.7-2.2,4.9-4.9,4.9H27.8c-2.7,0-4.9-2.2-4.9-4.9V35.9c0-1.5,1.2-2.7,2.7-2.7
	h22.5c1.5,0,2.7,1.2,2.7,2.7V491.2z M489.8,321.8c0,4.4-2.3,8.4-6.1,10.6c-68.7,39.3-134.3,17-203.7-6.7
	c-69.1-23.6-140.4-47.9-214.2-6.2v-81.5c21.8-13.7,46.1-22.1,71.7-24.4c14.8-1.3,56.5,4.7,71.2,6.8c4.1,0.6,7.9-2.2,8.5-6.3
	c0.6-4-2.3-7.9-6.3-8.5c-14.5-2.1-56.1-8.2-70.8-7.3c-26.2,1.7-51.4,9.3-74.3,22.2v-81.5c12.4-7.8,25.7-14.1,39.7-18.3
	c51.7-15.8,104.9-0.5,154.3,16c74.6,25,155.3,53.5,229.7,11.8c0.1-0.1,0.2-0.1,0.4-0.2v81.5c-70.6,44.4-138.2,21.3-209.6-3
	c-21.9-7.5-44.6-15.2-67.2-20.7c-4-1-8.1,1.5-9,5.5c-1,4,1.5,8.1,5.5,9c21.9,5.3,44.3,13,65.9,20.3c41.9,14.3,84.6,28.8,128.2,28.8
	c28.4,0,57.1-6.2,86.2-22.6L489.8,321.8L489.8,321.8z"/>
</svg>
