<?xml version="1.0" encoding="utf-8"?>
<!-- Generator: Adobe Illustrator 21.0.0, SVG Export Plug-In . SVG Version: 6.00 Build 0)  -->
<svg version="1.1" id="Capa_1" xmlns="http://www.w3.org/2000/svg" xmlns:xlink="http://www.w3.org/1999/xlink" x="0px" y="0px"
	 width="242.7px" height="242.7px" viewBox="0 0 242.7 242.7" style="enable-background:new 0 0 242.7 242.7;fill:#e2d5b3" xml:space="preserve"
	>
<g>
	<path d="M147.1,91.4l-57.7,35.6c-2.2,1.4-3.3,4-2.5,6.5l6.2,21.9c0.4,1.6,2.7,1.4,2.9-0.2l1.6-12c0.3-2.3,1.4-4.4,3.1-5.9L148.3,93
		C149.2,92.1,148.1,90.7,147.1,91.4z"/>
	<path d="M121-0.3C54-0.3-0.3,54.1-0.3,121.1S54,242.4,121,242.4s121.3-54.3,121.3-121.3S188-0.3,121-0.3z M176.1,72.5l-21.8,104.7
		c-0.5,2.5-3.4,3.6-5.5,2.1l-29.7-21.6c-1.8-1.3-4.3-1.2-6,0.2l-16.5,13.4c-1.9,1.6-4.8,0.7-5.5-1.7l-11.4-36.8l-29.5-11
		c-3-1.1-3-5.4,0-6.5l121.3-46.8C174,67.5,176.6,69.8,176.1,72.5z"/>
</g>
</svg>
