<?xml version="1.0" encoding="iso-8859-1"?>
<!-- Generator: Adobe Illustrator 16.0.0, SVG Export Plug-In . SVG Version: 6.00 Build 0)  -->
<!DOCTYPE svg PUBLIC "-//W3C//DTD SVG 1.1//EN" "http://www.w3.org/Graphics/SVG/1.1/DTD/svg11.dtd">
<svg version="1.1" id="Capa_1" xmlns="http://www.w3.org/2000/svg" xmlns:xlink="http://www.w3.org/1999/xlink" x="0px" y="0px"
	 width="602.745px" height="602.745px" viewBox="0 0 602.745 602.745" style="enable-background:new 0 0 602.745 602.745;fill:#e2d5b3"
	 xml:space="preserve">
<g>
	<g>
		<path d="M583.845,296.893c-2.832-8.942-11.796-36.164-24.797-65.354c-22.769-51.125-45.512-80.853-69.528-90.877
			c-13.788-5.756-27.923-5.181-40.878,1.662c-10.461,5.525-14.462,18.484-8.937,28.944c5.524,10.46,18.483,14.462,28.944,8.937
			c1.055-0.558,1.844-0.886,3.586-0.304c0.24,0.08,0.497,0.176,0.777,0.293c4.389,1.831,19.82,11.385,42.321,58.809
			c1.442,3.039,2.912,6.229,4.411,9.586c5.782,12.953,10.757,25.653,14.657,36.267l-174.079,6.611
			c-15.913,0.604-30.51,8.265-40.047,21.017c-0.16,0.215-0.314,0.433-0.472,0.649c-6.161-1.179-12.582-1.791-19.106-1.791
			c-6.086,0-12.104,0.543-17.912,1.581c-0.107-0.146-0.21-0.294-0.319-0.439c-9.538-12.751-24.134-20.412-40.046-21.017
			l-174.079-6.611c3.9-10.615,8.875-23.313,14.658-36.267c1.499-3.357,2.969-6.548,4.411-9.586
			c22.5-47.423,37.932-56.978,42.321-58.809c0.28-0.117,0.537-0.213,0.778-0.293c1.743-0.582,2.531-0.254,3.586,0.304
			c10.46,5.524,23.419,1.524,28.944-8.937c5.525-10.46,1.524-23.419-8.937-28.944c-12.955-6.843-27.091-7.417-40.878-1.662
			c-24.017,10.025-46.76,39.752-69.528,90.877c-13,29.191-21.965,56.413-24.797,65.354c-2.093,1.791-4.061,3.754-5.875,5.886
			c-9.989,11.734-14.308,27.189-11.849,42.404l11.568,71.564c1.93,11.939,7.981,22.93,17.041,30.943
			c9.059,8.013,20.704,12.68,32.79,13.139l134.418,5.104c1.034,0.039,2.081,0.06,3.113,0.06c37.395,0,69.935-25.321,79.134-61.575
			l12.073-47.584c0.167-0.662,0.318-1.325,0.459-1.989c2.883-0.434,5.884-0.665,8.927-0.665c3.551,0,7.028,0.305,10.318,0.882
			c0.13,0.592,0.265,1.182,0.415,1.772l12.072,47.583c9.198,36.255,41.739,61.575,79.134,61.575c1.032,0,2.079-0.02,3.111-0.059
			l134.42-5.105c12.087-0.459,23.731-5.125,32.791-13.139c9.059-8.015,15.11-19.003,17.041-30.943l11.567-71.564
			c2.46-15.216-1.86-30.672-11.851-42.406C587.904,300.646,585.938,298.684,583.845,296.893z M559.277,338.348l-11.567,71.564
			c-0.734,4.541-4.57,7.935-9.167,8.109l-134.418,5.105c-0.498,0.019-0.992,0.027-1.487,0.027
			c-17.688,0-33.229-12.004-37.609-29.271L352.955,346.3c-1.512-5.957,2.853-11.792,8.993-12.024l187.429-7.119
			c0.127-0.005,0.252-0.007,0.377-0.007C555.666,327.149,560.23,332.454,559.277,338.348z M265.887,341.228L265.887,341.228
			L265.887,341.228L265.887,341.228z M200.106,423.154c-0.495,0-0.99-0.009-1.488-0.027l-134.418-5.105
			c-4.597-0.175-8.433-3.568-9.167-8.109l-11.567-71.564c-0.953-5.895,3.612-11.198,9.523-11.198c0.125,0,0.25,0.003,0.377,0.008
			l187.429,7.118c6.141,0.232,10.505,6.067,8.994,12.024l-12.073,47.584C233.335,411.15,217.794,423.154,200.106,423.154z"/>
		<path d="M200.106,466.494c-1.039,0-2.092-0.021-3.132-0.06L62.556,461.33c-12.2-0.464-23.956-5.174-33.102-13.264
			c-9.145-8.09-15.255-19.185-17.203-31.238L0.682,345.264c-2.482-15.359,1.878-30.963,11.962-42.809
			c1.774-2.084,3.732-4.051,5.822-5.849c3.229-10.185,12.021-36.634,24.774-65.271c22.823-51.248,45.652-81.059,69.792-91.135
			c13.861-5.787,28.276-5.199,41.304,1.681c5.178,2.735,8.98,7.322,10.708,12.917c1.727,5.595,1.172,11.527-1.562,16.704
			c-3.807,7.208-11.241,11.687-19.401,11.687c-3.537,0-7.07-0.879-10.219-2.541c-1-0.53-1.734-0.761-3.194-0.272
			c-0.231,0.077-0.476,0.169-0.743,0.281c-4.176,1.742-19.55,11.113-42.062,58.562c-1.471,3.1-2.953,6.321-4.406,9.576
			c-4.908,10.994-9.753,22.963-14.407,35.589l173.391,6.585c16.063,0.61,30.799,8.343,40.428,21.216l0.14,0.192
			c12.044-2.114,24.72-2.021,36.578,0.206l0.29-0.397c9.628-12.874,24.364-20.607,40.429-21.217l173.391-6.585
			c-4.657-12.634-9.503-24.604-14.406-35.589c-1.463-3.275-2.945-6.497-4.407-9.576c-22.512-47.447-37.886-56.819-42.062-58.562
			c-0.269-0.112-0.514-0.204-0.743-0.281c-1.46-0.488-2.194-0.257-3.194,0.272c-3.148,1.663-6.682,2.542-10.219,2.542
			c-8.16,0-15.594-4.478-19.401-11.687c-2.734-5.177-3.289-11.109-1.562-16.704c1.727-5.595,5.529-10.182,10.707-12.917
			c13.028-6.881,27.442-7.469,41.304-1.681c24.14,10.076,46.97,39.887,69.793,91.135c12.756,28.643,21.545,55.089,24.773,65.271
			c2.086,1.794,4.044,3.76,5.821,5.846c10.086,11.847,14.446,27.451,11.963,42.811l-11.567,71.564
			c-1.948,12.053-8.058,23.146-17.203,31.237s-20.902,12.801-33.104,13.265l-134.42,5.105c-1.038,0.039-2.092,0.059-3.13,0.059
			c-37.624,0-70.364-25.476-79.618-61.952l-12.072-47.583c-0.124-0.486-0.237-0.973-0.347-1.46
			c-5.918-1.001-12.3-1.091-18.413-0.208c-0.121,0.557-0.25,1.112-0.39,1.668l-12.073,47.584
			C270.47,441.019,237.729,466.494,200.106,466.494z M132.143,137.23c-6.238,0-12.539,1.31-18.725,3.892
			c-23.893,9.973-46.549,39.615-69.264,90.619c-12.79,28.719-21.588,55.235-24.777,65.302l-0.043,0.136l-0.108,0.093
			c-2.091,1.789-4.049,3.75-5.819,5.831c-9.894,11.622-14.172,26.931-11.736,42l11.568,71.564
			c1.912,11.827,7.906,22.712,16.878,30.648c8.974,7.938,20.508,12.56,32.478,13.014l134.418,5.104
			c1.028,0.039,2.068,0.06,3.094,0.06c37.165,0,69.507-25.166,78.65-61.198l12.073-47.584c0.166-0.655,0.314-1.312,0.454-1.97
			l0.072-0.34l0.343-0.051c6.435-0.968,13.18-0.874,19.405,0.219l0.331,0.058l0.071,0.327c0.129,0.587,0.263,1.171,0.411,1.757
			l12.072,47.583c9.143,36.032,41.483,61.198,78.649,61.198c1.026,0,2.066-0.02,3.093-0.059l134.42-5.105
			c11.971-0.454,23.505-5.076,32.479-13.014c8.972-7.938,14.967-18.822,16.879-30.648l11.567-71.564
			c2.436-15.069-1.843-30.379-11.738-42.002c-1.773-2.082-3.731-4.042-5.818-5.828l-0.108-0.093l-0.043-0.136
			c-3.188-10.065-11.984-36.578-24.777-65.302c-22.714-51.004-45.371-80.646-69.264-90.62c-13.588-5.672-27.688-5.1-40.452,1.643
			c-4.941,2.609-8.57,6.987-10.219,12.327s-1.119,11.001,1.491,15.942c3.634,6.88,10.729,11.154,18.517,11.154
			c3.375,0,6.747-0.839,9.752-2.426c1.103-0.583,2.182-0.938,3.978-0.336c0.251,0.083,0.52,0.184,0.812,0.306
			c4.259,1.777,19.916,11.287,42.581,59.056c1.465,3.086,2.95,6.315,4.416,9.597c4.996,11.192,9.932,23.404,14.67,36.298
			l0.237,0.646l-0.688,0.026l-174.079,6.611c-15.761,0.599-30.219,8.186-39.665,20.817l-0.654,0.9l-0.312-0.06
			c-11.931-2.283-24.717-2.375-36.836-0.209l-0.307,0.055l-0.501-0.688c-9.447-12.63-23.904-20.217-39.665-20.816l-174.766-6.637
			l0.237-0.646c4.734-12.884,9.67-25.097,14.67-36.298c1.456-3.262,2.941-6.491,4.416-9.597
			c22.665-47.77,38.321-57.279,42.58-59.056c0.292-0.123,0.561-0.223,0.812-0.307c1.795-0.6,2.874-0.247,3.978,0.337
			c3.004,1.586,6.376,2.425,9.751,2.425c7.788,0,14.883-4.274,18.517-11.153c2.61-4.941,3.14-10.603,1.491-15.942
			s-5.278-9.717-10.219-12.327C146.917,139.093,139.607,137.23,132.143,137.23z M402.638,423.654c-18,0-33.665-12.191-38.094-29.647
			l-12.073-47.584c-0.758-2.986-0.135-6.114,1.711-8.582c1.846-2.467,4.67-3.948,7.748-4.065l187.429-7.119
			c3.152-0.112,6.102,1.195,8.121,3.568c1.933,2.27,2.768,5.26,2.291,8.203l-11.567,71.564c-0.77,4.759-4.824,8.346-9.642,8.529
			l-134.418,5.105C403.64,423.646,403.139,423.654,402.638,423.654z M549.754,327.649c-0.119,0-0.237,0.002-0.357,0.007
			l-187.43,7.119c-2.774,0.104-5.32,1.44-6.984,3.664c-1.664,2.225-2.226,5.045-1.543,7.737l12.073,47.584
			c4.438,17.486,20.471,29.557,38.594,28.866l134.418-5.105c4.343-0.165,7.998-3.398,8.692-7.689l11.567-71.564
			c0.429-2.653-0.324-5.349-2.066-7.395C554.975,328.824,552.436,327.649,549.754,327.649z M200.106,423.654
			c-0.501,0-1.002-0.009-1.506-0.027l-134.418-5.105c-4.817-0.184-8.872-3.771-9.641-8.529l-11.567-71.564
			c-0.476-2.944,0.36-5.935,2.292-8.204c2.02-2.372,4.974-3.673,8.121-3.566l187.428,7.118c3.078,0.117,5.902,1.599,7.747,4.065
			c1.846,2.467,2.47,5.595,1.712,8.582l-12.073,47.584C233.772,411.463,218.107,423.654,200.106,423.654z M52.99,327.649
			c-2.682,0-5.22,1.175-6.963,3.223c-1.742,2.046-2.495,4.742-2.066,7.396l11.567,71.564c0.693,4.291,4.349,7.524,8.692,7.689
			l134.418,5.105c18.121,0.685,34.158-11.38,38.594-28.866l12.073-47.584c0.683-2.692,0.121-5.513-1.543-7.737
			c-1.664-2.224-4.209-3.56-6.984-3.664l-187.429-7.118C53.227,327.652,53.109,327.649,52.99,327.649z"/>
	</g>
</g>
<g>
</g>
<g>
</g>
<g>
</g>
<g>
</g>
<g>
</g>
<g>
</g>
<g>
</g>
<g>
</g>
<g>
</g>
<g>
</g>
<g>
</g>
<g>
</g>
<g>
</g>
<g>
</g>
<g>
</g>
</svg>
