<?xml version="1.0" encoding="utf-8"?>
<!-- Generator: Adobe Illustrator 21.0.0, SVG Export Plug-In . SVG Version: 6.00 Build 0)  -->
<svg version="1.1" id="Layer_1" xmlns="http://www.w3.org/2000/svg" xmlns:xlink="http://www.w3.org/1999/xlink" x="0px" y="0px"
	 width="512px" height="512px" viewBox="0 0 512 512" style="enable-background:new 0 0 512 512;fill: #eae3ce;" xml:space="preserve">
<style type="text/css">
	.st0{stroke:#000000;stroke-width:2;stroke-miterlimit:10;}
</style>
<g transform="translate(1 1)">
	<g>
		<g>
			<path class="st0" d="M506.1,313c-15.4-20.5-30.7-20.5-68.3-0.9l-73.4,45.2c-10.2,6-33.3,7.7-54.6,7.7c4.3-7.7,2.6-17.1-5.1-28.2
				c-13.7-19.6-36.7-31.6-61.4-31.6h-33.3c-17.9,0-35-5.1-48.6-15.4c-30.8-23.1-78.9,2-102.4,17v-4c0-7.7-6.2-13.9-13.9-13.9H13.1
				c-7.7,0-13.9,6.2-13.9,13.9v194c0,7.7,6.2,13.9,13.9,13.9H45c7.7,0,13.9-6.2,13.9-13.9v-11.7h110.9c17.1,0,35-1.7,52.1-3.4
				l110.9-17.1c4.3,0,8.5-0.9,11.9-1.7c10.2-1.7,19.6-6.8,28.2-14.5l128.9-101.5C512,338.6,513.7,323.3,506.1,313z M33.3,493.9h-8.5
				c-4.7,0-8.5-3.8-8.5-8.5V314.7c0-4.7,3.8-8.5,8.5-8.5h8.5c4.7,0,8.5,3.8,8.5,8.5v4.3v166.4l0,0C41.8,490.1,38,493.9,33.3,493.9z
				 M491.5,336.1L361.8,436.8l-0.9,0.9c-6,5.1-11.9,8.5-18.8,9.4h-0.9c-3.4,0.9-6,0.9-9.4,0.9l-112.6,17.1
				c-16.2,2.6-33.3,3.4-49.5,3.4H58.9V327.5c20.5-14.5,68.3-41.8,92.2-23c16.2,11.9,36.7,18.8,58.9,18.8h33.3
				c19.6,0,37.5,8.5,48.6,25.6c3.4,5.1,4.3,10.2,3.4,11.9c-2.6,4.3-12.8,6-23.9,6.8c-2.4,0-4.7,0-6.8,0c-0.9,0-1.8,0-2.6,0h-80.2
				c-26.5,0-42.7,12.8-42.7,34.1c0,4.6,3.6,8.4,8.2,8.5c5.3,0.2,8.9-3.3,8.9-8.5c0-4.3,0-17.1,25.6-17.1h79.4c1,0,2.1,0,3.4,0
				c2.1,0,4.5,0,7.7,0c0.9,0,2.6,0,4.3,0c40.1,0.9,77.7,0,97.3-10.2l73.4-45.2c35.8-17.9,39.3-13.7,46.1-3.4
				C495,328.4,495,333.5,491.5,336.1z"/>
			<path class="st0" d="M379.4,101.2c21.7,2.3,40-16,37.7-37.7c-1.7-15.8-14.4-28.5-30.2-30.2c-21.7-2.3-40,16-37.7,37.7
				C350.9,86.8,363.6,99.5,379.4,101.2z M380.5,50.4C392,48.6,401.8,58.5,400,70c-1.1,7.2-6.9,13-14.1,14.1
				c-11.5,1.8-21.4-8.1-19.6-19.6C367.4,57.3,373.2,51.5,380.5,50.4z"/>
			<path class="st0" d="M178.4,264.4c0.9,4.3,4.3,6.8,8.5,6.8h42.7c5.1,0,8.5-3.4,9.4-6.8v-25.6h34.1c4.7,0,8.5-3.8,8.5-8.5v-25.6
				h25.6c4.7,0,8.5-3.8,8.5-8.5v-25.6h25.6c2.6,0,5.1-1.7,6.8-3.4c0,0,7.1-8.4,13.4-15.6c4.2,0.7,8.6,1.1,13,1.1
				c42.7,0,76.8-34.1,76.8-76.8c0-42.3-34.5-76.8-76.8-76.8c-42.7,0-76.8,34.1-76.8,76.8c0,5,0.5,10,1.4,14.7L172.4,214
				c-2.6,1.7-3.4,5.1-2.6,7.7L178.4,264.4z M376.1,16.1c32.6,0.7,58.3,26.9,58.3,59.7c0,33-26.3,59.5-59.2,59.7
				c-5.4,0-10.7-0.6-15.7-1.9c-21-6.1-37-22.2-42-42.5c-0.2-0.7-0.6-1.4-1.1-2.1c-1.2-5.5-1.7-11.3-1.3-17.3
				C317.2,40,344.3,15.4,376.1,16.1z M304.7,108.2c1.8,3.7,3.9,7.3,6.2,10.6c0,0,0,0.1,0.1,0.1c0.2,0.4,0.5,0.7,0.8,1.1
				c7.6,10.9,18,19.7,30.1,25.3c-2.3,2.4-4,4.8-5.6,6.4h-29.9c-4.7,0-8.5,3.8-8.5,8.5v25.6h-25.6c-4.7,0-8.5,3.8-8.5,8.5V220h-34.1
				c-4.7,0-8.5,3.8-8.5,8.5v25.6h-27.3l-6-30.7L304.7,108.2z"/>
		</g>
	</g>
</g>
</svg>
